<svg width="120" height="100" viewBox="0 0 125 122" fill="none" xmlns="http://www.w3.org/2000/svg">
<g id="Capa_1" clip-path="url(#clip0_0_270)">
<path id="Vector" d="M122.97 38.2911L100.076 12.799C97.5105 9.93664 93.3109 9.37194 90.1053 11.2396C89.4705 6.25828 85.9708 2.15768 81.303 0.634524C80.0384 0.22006 78.688 -0.00271416 77.283 -0.00271416H12.5154C5.60199 -0.000123759 0 5.577 0 12.4597V17.2597C0 18.9279 1.35821 20.2775 3.03127 20.2775H5.57076V64.8531C2.84913 66.1172 0.960118 68.8656 0.960118 72.0466V106.242C0.960118 110.618 4.53519 114.177 8.92987 114.177H22.0385C24.2735 114.177 26.2952 113.255 27.7445 111.776C28.918 112.343 30.7081 113.104 33.1748 113.895C34.4784 116.384 37.0933 118.088 40.1038 118.088C41.6051 118.088 43.0075 117.664 44.2018 116.928C45.3077 119.886 48.1724 121.997 51.5237 121.997C53.7874 121.997 55.8273 121.034 57.2558 119.495C58.6843 121.031 60.7242 121.997 62.9879 121.997C66.3392 121.997 69.2039 119.884 70.3097 116.928C71.5014 117.661 72.9039 118.088 74.4078 118.088C77.3012 118.088 79.8303 116.513 81.1807 114.179L85.5806 114.218C89.8425 114.257 93.5919 111.195 94.154 106.989C94.435 104.88 93.9198 102.893 92.8634 101.284C96.0586 100.098 98.3405 97.031 98.3405 93.4407C98.3405 91.3814 97.5885 89.493 96.3422 88.0346C98.7594 86.5632 100.375 83.9107 100.375 80.8903C100.375 79.0925 99.8002 77.4269 98.8297 76.0618C102.061 74.7173 104.278 71.4172 103.976 67.6533C103.885 66.5084 103.552 65.4385 103.04 64.4801C103.961 63.6045 105.1 62.2472 106.318 60.1541C106.479 60.1748 106.643 60.1878 106.812 60.1981C106.966 60.2059 107.117 60.2111 107.268 60.2111C109.23 60.2111 111.098 59.4987 112.573 58.188L122.343 49.4894C123.933 48.0777 124.873 46.1349 124.99 44.0185C125.109 41.9022 124.391 39.8661 122.973 38.2834L122.97 38.2911ZM77.283 4.18337C78.7322 4.18337 80.0983 4.53566 81.303 5.16772C84.0975 6.61575 86.0047 9.52218 86.0047 12.869C86.0047 13.571 85.9214 14.2497 85.7601 14.9024L81.303 18.8709L79.7158 20.2827L79.0497 20.8759C78.8363 21.0676 78.6334 21.267 78.4434 21.4743C77.3428 22.6866 76.6793 24.1735 76.4711 25.7096C76.302 26.9193 76.4139 28.1627 76.8146 29.3387C72.857 31.2634 62.2515 36.825 53.5896 44.9977C48.404 49.891 44.5193 57.1648 41.8809 63.418C36.1618 68.6532 31.7177 69.5883 29.644 69.6894C28.6318 66.4617 25.6031 64.1122 22.0333 64.1122H9.7677V20.2801H66.4641C68.6003 20.2801 70.0079 18.1197 69.1987 16.1484C69.1909 16.1303 69.1857 16.1147 69.1779 16.0966C68.772 15.0993 68.5508 14.0088 68.5508 12.869C68.5508 8.13891 72.3679 4.28181 77.0956 4.18855C77.1555 4.18596 77.2179 4.18596 77.2777 4.18596L77.283 4.18337ZM43.7101 103.038V110.315C43.7101 112.296 42.0917 113.907 40.1012 113.907C38.1107 113.907 36.4923 112.296 36.4923 110.315V99.1292C36.4923 97.1476 38.1107 95.5364 40.1012 95.5364C42.0917 95.5364 43.7101 97.1476 43.7101 99.1292V103.041V103.038ZM55.13 114.224C55.13 116.205 53.5116 117.816 51.5211 117.816C49.5306 117.816 47.9122 116.205 47.9122 114.224V103.038C47.9122 101.057 49.5306 99.4453 51.5211 99.4453C53.5116 99.4453 55.13 101.057 55.13 103.038V114.224ZM66.5942 110.312V114.224C66.5942 116.205 64.9758 117.816 62.9853 117.816C60.9948 117.816 59.3764 116.205 59.3764 114.224V105.219C59.3764 103.238 60.9948 101.626 62.9853 101.626C64.9758 101.626 66.5942 103.238 66.5942 105.219V110.312ZM78.0115 110.312C78.0115 112.294 76.3931 113.905 74.4026 113.905C72.4121 113.905 70.7937 112.294 70.7937 110.312V105.219C70.7937 103.238 72.4121 101.626 74.4026 101.626C76.3931 101.626 78.0115 103.238 78.0115 105.219V110.312ZM95.598 72.5259H81.2093C80.0488 72.5259 79.1095 73.4636 79.1095 74.6163C79.1095 75.769 80.0514 76.7068 81.2093 76.7068H91.8564C93.9276 76.7068 95.7776 78.1496 96.1132 80.1831C96.5452 82.7994 94.5182 85.0737 91.9709 85.0737H86.4626C85.3021 85.0737 84.3628 86.0115 84.3628 87.1642C84.3628 88.3169 85.3047 89.2546 86.4626 89.2546H89.8217C91.8929 89.2546 93.7429 90.6975 94.0785 92.731C94.5104 95.3473 92.4835 97.6216 89.9362 97.6216H87.3447C87.29 97.6113 87.2328 97.6061 87.1781 97.5983V97.6216H84.7766C83.5901 97.6216 82.63 98.5775 82.63 99.7587C82.63 100.94 83.5901 101.896 84.7766 101.896H87.1781C89.0672 102.536 90.3525 104.473 89.957 106.631C89.5876 108.646 87.7298 110.05 85.6716 110.032L82.2188 110.001V105.217C82.2188 100.93 78.714 97.4403 74.4078 97.4403C72.1571 97.4403 70.125 98.3962 68.6991 99.9167C67.2733 98.3936 65.2412 97.4403 62.9905 97.4403C61.2003 97.4403 59.5507 98.0439 58.2341 99.0541C56.8681 96.7824 54.3728 95.2566 51.5263 95.2566C50.025 95.2566 48.6225 95.6814 47.4282 96.4171C46.3224 93.4589 43.4577 91.3477 40.1064 91.3477C35.8002 91.3477 32.2953 94.837 32.2953 99.1241V109.159C31.2442 108.766 30.4115 108.403 29.7871 108.108C29.9328 107.509 30.0134 106.882 30.0134 106.24V73.8521C32.0846 73.7278 35.2642 73.0621 39.1437 70.7281C39.0136 71.1167 38.8913 71.4923 38.7794 71.8446C37.6944 75.251 38.3631 79.0278 40.7334 81.714C41.6025 82.6984 42.6667 83.5247 43.9468 83.9081C44.5687 84.0946 45.201 84.1878 45.8463 84.1878C48.0969 84.1878 50.4907 83.0532 52.9834 80.8022C57.1153 77.0694 58.6999 73.3548 59.9722 70.3706C61.5646 66.6379 62.2229 65.094 66.5187 64.9748C68.5742 64.9178 70.5335 64.6174 72.3419 64.1122H87.1781V64.1589H95.4888C97.5599 64.1589 99.4099 65.6017 99.7455 67.6352C100.177 70.2515 98.1506 72.5259 95.6032 72.5259H95.598ZM100.19 61.4027C98.8062 60.4986 97.1488 59.978 95.3951 59.978H79.7782C80.1685 59.5842 80.5302 59.1698 80.8554 58.7372C81.4721 57.9134 81.9248 57.0638 82.2084 56.2219C82.7444 54.6288 81.2978 53.0823 79.6689 53.5201C78.9898 53.704 78.4408 54.2091 78.2249 54.8775C78.0974 55.2686 77.8658 55.7323 77.4859 56.24C75.9195 58.3382 72.1831 60.6359 66.4016 60.7965C59.4076 60.9908 57.7267 64.9282 56.1031 68.7387C54.9323 71.4819 53.6079 74.593 50.1577 77.7067C48.7578 78.9708 46.7543 80.3799 45.162 79.9085C44.5843 79.7375 44.0743 79.3334 43.6346 78.8283C42.3935 77.3984 42.0396 75.4064 42.5912 73.5957C44.2877 68.0419 48.8281 55.2583 56.483 48.0336C65.0148 39.9827 75.8753 34.4418 79.1355 32.872L101.315 57.5663C101.645 57.9315 101.996 58.2631 102.379 58.5532C102.379 58.5532 102.379 58.5532 102.381 58.5532C101.502 59.9831 100.737 60.8691 100.19 61.4001V61.4027Z" fill="black"/>
<path id="Vector_2" d="M58.5542 24.2358H16.0774C14.917 24.2358 13.9777 25.1735 13.9777 26.3262C13.9777 27.4789 14.9196 28.4167 16.0774 28.4167H58.5542C59.7146 28.4167 60.6539 27.4789 60.6539 26.3262C60.6539 25.1735 59.712 24.2358 58.5542 24.2358Z" fill="black"/>
<path id="Vector_3" d="M58.5542 32.3748H16.0774C14.917 32.3748 13.9777 33.3125 13.9777 34.4653C13.9777 35.618 14.9196 36.5557 16.0774 36.5557H58.5542C59.7146 36.5557 60.6539 35.618 60.6539 34.4653C60.6539 33.3125 59.712 32.3748 58.5542 32.3748Z" fill="black"/>
<path id="Vector_4" d="M47.6858 40.1045H16.0774C14.917 40.1045 13.9777 41.0423 13.9777 42.195C13.9777 43.3477 14.9196 44.2855 16.0774 44.2855H47.6832C48.8437 44.2855 49.783 43.3477 49.783 42.195C49.783 41.0423 48.8411 40.1045 47.6832 40.1045H47.6858Z" fill="black"/>
<path id="Vector_5" d="M42.9738 54.5642L42.8749 54.5072C42.1385 54.0927 41.2357 54.1937 40.5722 54.7144C40.2911 54.9372 39.9607 55.1211 39.6068 55.1833C38.9329 55.2972 38.1289 54.9579 37.2131 54.1652C35.0821 52.3235 33.102 52.2561 31.8166 52.5229C31.2416 52.6421 30.7056 52.8467 30.2112 53.1084C30.0031 53.2197 29.7481 53.1369 29.6336 52.9296C29.6258 52.9167 29.618 52.9037 29.6102 52.8882C28.5226 50.9557 26.5893 49.645 24.4063 49.2124C22.7098 48.8782 20.6595 48.8083 19.1165 49.8108C16.3923 51.5774 14.6672 54.4865 13.7279 56.5251C13.1867 57.6985 13.8658 59.0663 15.1304 59.346C16.1139 59.5662 17.1 59.03 17.4695 58.0975C18.1096 56.4785 19.27 54.3932 20.9847 53.5565C21.5624 53.2741 22.192 53.2223 22.8685 53.1628C25.5798 52.9193 26.1652 54.774 26.186 56.222C26.2016 57.2478 26.7923 58.1778 27.729 58.6104C28.8244 59.1181 30.1175 58.8176 30.9007 57.9006C31.4263 57.2867 32.0586 56.7427 32.6805 56.6158C32.873 56.5769 33.4584 56.4577 34.4602 57.3229C36.8462 59.3823 38.9642 59.5377 40.325 59.302C41.5505 59.0896 42.5444 58.5197 43.3042 57.8954C44.4048 56.9914 44.2201 55.2558 42.9764 54.559L42.9738 54.5642Z" fill="black"/>
</g>
<defs>
<clipPath id="clip0_0_270">
<rect width="125" height="122" fill="white"/>
</clipPath>
</defs>
</svg>
