<svg width="470" height="510" viewBox="0 0 470 510" fill="none" xmlns="http://www.w3.org/2000/svg">
<g clip-path="url(#clip0_0_98)">
<path d="M155.693 83.1855L51.2559 30.625L8.09908 116.377L112.537 168.938L155.693 83.1855Z" stroke="#1D1D1B" stroke-miterlimit="10"/>
<path d="M261.387 217.344L166.636 169.659L214.296 74.9595L309.046 122.645L261.387 217.344ZM169.795 168.616L260.342 214.186L305.888 123.687L215.34 78.1173L169.795 168.616Z" fill="#1D1D1B"/>
<path d="M400.433 313.802L294.23 260.353L336.869 175.63L443.072 229.079L400.433 313.802ZM297.525 259.668L399.02 310.748L439.777 229.763L338.282 178.684L297.535 259.647L297.525 259.668Z" fill="#1D1D1B"/>
<path d="M255.205 198.229L185.944 163.372L220.782 94.1484L290.043 129.005L255.205 198.229ZM189.124 162.34L254.182 195.082L286.906 130.059L221.848 97.3168L189.124 162.34Z" fill="#1D1D1B"/>
<path d="M142.911 88.0708L54.9272 43.791L20.7337 111.733L108.718 156.013L142.911 88.0708Z" fill="#E94649"/>
<path d="M29.202 115.995L82.9726 69.803L53.5567 128.252L29.202 115.995Z" fill="#B7C7D8"/>
<path d="M77.9325 140.52L82.9727 69.8032L53.5567 128.253L77.9325 140.52Z" fill="#FAFAFA"/>
<path d="M58.9362 130.96L102.745 93.31L78.773 140.943L58.9362 130.96Z" fill="#B7C7D8"/>
<path d="M98.631 150.937L102.746 93.3101L78.7731 140.943L98.631 150.937Z" fill="#FAFAFA"/>
<path d="M44.4351 80.5991L74.7576 95.8596C74.7576 95.8596 78.7253 86.3538 69.2977 82.8463C69.2977 82.8463 73.1617 77.0524 66.8791 73.7325C61.0271 70.6558 58.2354 76.7262 58.2354 76.7262C58.2354 76.7262 48.8228 71.3574 44.4351 80.5991Z" fill="white"/>
<path d="M86.7587 114.086L111.975 126.777C111.975 126.777 115.287 118.889 107.435 115.964C107.435 115.964 110.655 111.136 105.434 108.377C100.559 105.818 98.2327 110.859 98.2327 110.859C98.2327 110.859 90.4169 106.399 86.7587 114.086Z" fill="white"/>
<path d="M209.923 130.746L205.132 128.334L204.075 130.435L208.866 132.846L209.923 130.746Z" fill="#1D1D1B"/>
<path d="M256.178 112.673L254.077 111.615L251.667 116.404L253.768 117.461L256.178 112.673Z" fill="#1D1D1B"/>
<path d="M272.27 162.123L267.479 159.712L266.422 161.812L271.213 164.223L272.27 162.123Z" fill="#1D1D1B"/>
<path d="M224.585 175.449L222.483 174.391L220.073 179.18L222.175 180.237L224.585 175.449Z" fill="#1D1D1B"/>
<path d="M-18.3928 231.916C-18.3928 231.916 -11.6748 224.795 1.69049 231.258C15.0557 237.721 40.4167 260.276 27.6365 290.537L26.2003 292.868C26.2003 292.868 26.031 266.987 15.0322 256.293C4.03348 245.598 -12.1281 242.755 -14.8226 239.004C-17.5171 235.252 -18.3928 231.916 -18.3928 231.916Z" fill="#BCC6D7"/>
<path d="M-4.66738 250.59C-4.66738 250.59 8.46486 253.33 12.3008 263.604C16.1368 273.879 16.9925 285.523 12.8949 300.991C8.80784 316.438 14.7677 331.545 36.7026 343.953C58.6375 356.361 202.563 427.426 202.563 427.426C202.563 427.426 229.052 439.994 247.294 417.404C265.537 394.815 285.118 393.114 298.939 402.491L306.327 401.103C306.327 401.103 294.215 389.691 283.443 389.586C272.671 389.482 248.371 398.205 244.453 404.63C240.535 411.055 237.424 418.596 229.814 420.426C222.204 422.255 216.289 423.753 188.048 408.855C176.786 402.924 150.845 389.79 123.695 376.179C123.275 375.967 123.214 374.989 122.794 374.778C122.373 374.566 121.52 375.11 121.1 374.899C80.9216 354.731 39.0935 333.917 39.0935 333.917C39.0935 333.917 16.7573 326.545 21.5202 305.674C21.5202 305.674 23.996 299.708 27.0279 294.363C27.0279 294.363 26.2224 288.115 25.8688 286.41C25.5153 284.705 22.9159 258.839 12.0972 252.025C1.2785 245.212 -7.99631 243.808 -7.99631 243.808L-4.68853 250.632L-4.66738 250.59Z" fill="#E94649"/>
<path d="M321.145 402.796C321.145 402.796 322.861 393.158 309.708 386.275C296.554 379.391 263.329 372.462 246.64 400.756L245.624 403.298C245.624 403.298 266.51 388.014 281.653 390.475C296.795 392.937 308.707 404.223 313.325 404.152C317.944 404.081 321.145 402.796 321.145 402.796Z" fill="#BCC6D7"/>
<path d="M252.014 120.738L249.913 119.68L238.233 142.888L240.334 143.945L252.014 120.738Z" fill="#1D1D1B"/>
<path d="M241.084 147.926L239.09 149.173L249.315 165.5L251.309 164.252L241.084 147.926Z" fill="#1D1D1B"/>
<path d="M234.894 144.801L209.142 146.77L209.323 149.115L235.074 147.146L234.894 144.801Z" fill="#E30613"/>
<path d="M236.333 149.96C234.274 148.923 233.449 146.428 234.485 144.37C235.52 142.312 238.016 141.488 240.075 142.525C242.134 143.561 242.959 146.056 241.923 148.114C240.888 150.172 238.392 150.996 236.333 149.96ZM239.028 144.604C238.125 144.149 237.04 144.525 236.597 145.407C236.153 146.289 236.518 147.394 237.401 147.838C238.283 148.282 239.389 147.918 239.833 147.035C240.277 146.153 239.911 145.048 239.028 144.604Z" fill="#1D1D1B"/>
<path d="M381.84 236.877C385.873 222.271 390.878 210.076 390.941 209.95L375.601 202.229C375.538 202.513 370.246 228.778 368.887 238.438C373.054 237.798 377.379 237.264 381.861 236.887L381.84 236.877Z" fill="#E94649"/>
<path d="M406.604 236.442C407.143 231.185 410.078 222.213 410.82 219.954L393.105 211.039C393.053 211.144 388.281 222.614 384.334 236.684C391.415 236.167 398.873 236.052 406.604 236.442Z" fill="#E94649"/>
<path d="M408.95 236.543C414.85 236.907 422.558 238.075 428.773 239.123L432.842 231.037L412.879 220.99C412.18 223.165 409.467 231.591 408.929 236.532L408.95 236.543Z" fill="#E94649"/>
<path d="M414.99 266.563L427.621 241.465C416.569 239.614 404.895 238.425 394.891 238.575C397.534 242.011 404.37 251.347 414.99 266.563Z" fill="#E94649"/>
<path d="M366.435 238.81C367.625 229.696 373.034 202.201 373.269 201.056L357.551 193.145C357.476 193.555 349.557 232.158 347.911 242.859C353.606 241.329 359.784 239.937 366.435 238.81Z" fill="#E94649"/>
<path d="M391.945 238.619C379.721 238.995 368.44 240.582 358.399 242.741C361.635 248.923 376.042 277.074 386.929 299.399L396.133 304.031L413.69 269.146C401.162 251.18 393.498 240.611 391.935 238.64L391.945 238.619Z" fill="#E94649"/>
<path d="M356.01 243.25C349.085 244.818 342.811 246.662 337.241 248.518C339.126 252.309 346.233 267.072 351.889 281.737L383.367 297.58C372.166 274.623 358.607 248.242 356.021 243.229L356.01 243.25Z" fill="#E94649"/>
<path d="M315.072 255.049C315.226 252.021 314.216 243.458 313.73 239.923L304.64 257.985L306.636 258.989C308.142 258.3 311.923 256.596 315.072 255.049Z" fill="#E94649"/>
<path d="M317.441 253.899C320.021 252.697 323.139 251.318 326.74 249.866C327.111 244.052 327.914 212.159 327.893 211.833L330.071 207.401L315.569 236.216C315.838 238.141 317.336 249.45 317.42 253.888L317.441 253.899Z" fill="#E94649"/>
<path d="M345.437 243.536C346.669 234.39 355.256 193.885 355.596 192.162L341.37 185.002L330.103 207.39C330.078 208.694 329.559 240.967 329.161 248.926C333.889 247.12 339.353 245.264 345.437 243.536Z" fill="#E94649"/>
<path d="M309.368 260.364L348.558 280.087C342.85 265.422 336.663 252.649 334.999 249.311C322.207 253.796 312.528 258.69 309.368 260.364Z" fill="#E94649"/>
<path d="M329.497 385.416C324.685 373.834 303.79 366.793 302.886 366.496C302.728 366.443 296.61 364.627 287.68 364.318C288.323 359.062 290.213 334.533 272.766 314.881C257.606 297.803 209.765 275.173 189.895 266.252C185.345 264.199 180.262 265.036 176.625 267.971C176.815 263.302 174.46 258.721 170.1 256.29C151.096 245.646 104.417 220.707 81.6686 218.707C55.3333 216.404 36.6958 232.714 32.995 236.247C27.3736 229.154 22.1758 225.248 22.0393 225.153C21.2832 224.615 3.17778 212.029 -8.99001 215.065C-12.6951 215.99 -15.4671 218.254 -17.2429 221.782C-19.9065 227.075 -20.328 231.785 -18.5073 235.807C-16.2993 240.63 -11.4767 243.083 -8.78623 244.121C-7.5604 246.186 -0.459006 259.025 -2.43389 275.404C-2.95977 279.745 -3.70647 284.055 -4.43178 288.217C-6.78892 301.692 -8.99706 314.452 -3.03845 325.69C1.13994 333.557 7.28872 340.074 18.0122 347.129C16.5024 349.396 10.8998 351.999 8.32006 353.043L-18.136 339.728L-19.193 341.829L241.669 473.113L242.726 471.013L208.579 453.828C207.881 451.134 206.644 445.062 207.555 442.52C219.61 446.929 228.507 447.985 237.315 446.653C249.911 444.754 258.823 435.367 268.24 425.445C271.151 422.383 274.136 419.226 277.341 416.206C289.244 404.904 303.745 402.936 306.218 402.68C308.686 404.212 313.467 406.539 318.571 405.45C322.887 404.515 326.418 401.37 329.082 396.078C330.868 392.528 331.034 388.953 329.56 385.447L329.497 385.416ZM81.4211 221.031C103.718 222.987 150.028 247.768 168.917 258.327C173.833 261.064 175.691 267.158 173.165 272.178L175.266 273.235C177.792 268.216 183.783 266.098 188.922 268.394C208.635 277.263 256.15 299.702 271.005 316.443C288.148 335.757 285.87 360.012 285.323 364.29C271.196 364.261 251.357 368.306 236.415 387.529C228.207 379.976 213.238 371.153 189.019 359.306C149.88 340.162 142.591 339.731 139.05 342.581C139.229 338.039 134.54 332.441 95.8449 312.414C71.7852 299.937 55.7487 293.183 44.7923 291.143C51.3073 267.784 42.841 249.494 34.4316 238.155C37.2891 235.355 55.4959 218.802 81.4525 221.073L81.4211 221.031ZM236.276 414.807C227.147 427.085 212.931 420.325 201.509 414.919C200.406 414.39 199.323 413.872 198.294 413.406C188.49 408.92 140.895 384.651 126.543 377.323C124.988 376.54 124.34 374.687 124.986 373.091C125.028 373.007 125.091 372.933 125.133 372.849L128.569 366.023L126.425 364.945L122.99 371.77C122.99 371.77 122.905 371.938 122.884 372.033C121.986 373.503 120.113 374.086 118.558 373.304C104.121 366.144 56.2514 342.368 46.8278 337.178C45.8403 336.628 44.7792 336.068 43.6971 335.497C32.5396 329.566 18.6507 322.155 23.0724 307.508C25.1825 300.542 27.4345 295.805 32.1415 293.831C41.0079 290.081 59.1922 296.074 94.7669 314.504C138.032 336.91 137.213 340.631 136.405 344.225C136.267 344.813 136.139 345.433 136.096 346.096L137.242 346.173L137.987 347.048C138.493 346.618 138.883 346.156 139.305 345.684C141.71 342.894 144.21 340.019 187.983 361.417C223.991 379.039 239.628 390.041 241.899 399.396C243.107 404.374 240.656 408.983 236.318 414.829L236.276 414.807ZM-16.401 234.814C-17.9078 231.476 -17.5089 227.439 -15.1941 222.84C-13.7143 219.899 -11.522 218.107 -8.46947 217.327C2.65633 214.53 20.4571 226.937 20.6146 227.042C20.9401 227.285 53.4393 251.722 42.3949 290.726C37.7363 290.093 34.0642 290.429 31.1579 291.651C29.6205 292.299 28.356 293.189 27.2068 294.269C28.0752 283.072 27.5745 250.629 -6.41533 242.446C-6.47837 242.414 -13.8478 240.468 -16.422 234.804L-16.401 234.814ZM19.9342 348.386C23.0958 350.372 26.6149 352.432 30.5756 354.557C27.3014 355.673 21.2064 357.423 16.4523 357.136L11.0098 354.397C13.8426 353.111 18.3189 350.81 19.9342 348.386ZM113.175 393.89L112.424 395.539C112.676 395.665 139.114 407.602 171.577 425.309C176.914 428.205 181.799 430.795 186.317 433.069C187.956 433.894 189.532 434.687 191.109 435.428C191.547 437.017 193.248 442.69 196.013 447.504L20.7811 359.314C26.2949 358.667 31.8435 356.643 33.3808 356.048C34.9042 356.841 36.4696 357.655 38.1297 358.49C42.6476 360.764 47.6281 363.165 53.1447 365.705C86.6961 381.248 112.046 395.348 112.298 395.475L113.175 393.89ZM205.785 452.421L200.342 449.682C197.279 446.035 195.053 440.098 193.998 436.803C198.065 438.718 201.837 440.327 205.295 441.672C204.299 444.435 205.119 449.401 205.785 452.421ZM275.662 414.467C272.435 417.528 269.409 420.717 266.498 423.779C257.355 433.417 248.707 442.489 236.921 444.296C221.778 446.599 206.179 441.486 172.739 423.261C140.392 405.64 114.038 393.692 113.439 393.417C112.861 393.1 87.5639 379.053 54.1387 363.573C19.5995 347.585 6.17839 338.093 -0.994967 324.56C-6.59761 314.028 -4.4325 301.667 -2.13941 288.581C-1.40353 284.398 -0.646255 280.067 -0.120254 275.673C1.60748 261.46 -3.06729 250.027 -5.56964 245.108C31.7505 255.099 24.8465 295.924 24.5161 297.679L24.5582 297.701C23.0374 300.199 21.8834 303.277 20.8124 306.818C15.8287 323.314 31.2831 331.539 42.5876 337.544C43.6698 338.115 44.7098 338.665 45.6974 339.215C49.4268 341.276 59.135 346.215 70.3983 351.883C87.7345 360.608 108.759 371.057 117.511 375.383C119.129 376.197 120.981 376.129 122.518 375.376C122.841 377.039 123.868 378.556 125.496 379.402C134.217 383.843 155.125 394.524 172.44 403.238C183.703 408.906 193.454 413.761 197.331 415.528C198.361 415.994 199.422 416.501 200.526 417.03C212.063 422.521 227.908 430.022 238.177 416.211C240.456 413.147 242.294 410.281 243.384 407.487C246.052 404.803 274.351 377.509 303.403 400.632C297.952 401.574 286.005 404.642 275.641 414.456L275.662 414.467ZM318.009 403.113C311.925 404.421 305.962 399.683 305.93 399.64C279.296 377.366 253.1 395.873 244.446 403.336C244.607 401.865 244.547 400.361 244.162 398.824C243.401 395.73 241.442 392.559 238.105 389.143C262.85 357.086 301.818 368.617 302.175 368.744C302.375 368.818 322.945 375.722 327.327 386.324C328.53 389.22 328.387 392.069 326.907 395.01C324.581 399.63 321.598 402.366 318.009 403.113Z" fill="#1D1D1B"/>
<path d="M135.809 351.637L133.708 350.579L128.539 360.849L130.64 361.907L135.809 351.637Z" fill="#1D1D1B"/>
<path d="M168.967 285.753L166.865 284.695L146.698 324.768L148.799 325.825L168.967 285.753Z" fill="#1D1D1B"/>
</g>
<defs>
<clipPath id="clip0_0_98">
<rect width="451.957" height="343.347" fill="white" transform="translate(65.3518) rotate(26.7148)"/>
</clipPath>
</defs>
</svg>
