<svg width="312" height="476" viewBox="0 0 312 476" fill="none" xmlns="http://www.w3.org/2000/svg">
<g clip-path="url(#clip0_0_236)">
<path d="M226.618 424.773C323.596 424.773 402.213 346.168 402.213 249.203C402.213 152.239 323.596 73.6343 226.618 73.6343C129.639 73.6343 51.0223 152.239 51.0223 249.203C51.0223 346.168 129.639 424.773 226.618 424.773Z" fill="#E94649"/>
<path d="M1.44128 313.14L59.0673 378.459L152.134 419.752L228.874 474.287L334.888 294.029L252.347 239.801L159.836 202.511L95.4291 143.973L1.44128 313.14Z" fill="white" stroke="black" stroke-width="2" stroke-miterlimit="10"/>
<path d="M59.0673 378.459L159.836 202.512" stroke="black" stroke-width="2" stroke-miterlimit="10"/>
<path d="M152.134 419.753L252.347 239.801" stroke="black" stroke-width="2" stroke-miterlimit="10"/>
<path d="M163.534 222.391L233.8 249.203" stroke="black" stroke-width="2" stroke-miterlimit="10"/>
<path d="M156.351 235.797L226.617 262.598" stroke="black" stroke-width="2" stroke-miterlimit="10"/>
<path d="M149.582 249.204L219.848 276.004" stroke="black" stroke-width="2" stroke-miterlimit="10"/>
<path d="M141.88 259.657L212.134 286.469" stroke="black" stroke-width="2" stroke-miterlimit="10"/>
<path d="M84.2063 357.576L154.473 384.388" stroke="black" stroke-width="2" stroke-miterlimit="10"/>
<path d="M249.037 90.3182L134.698 24.3144C128.352 20.6515 120.239 22.8252 116.575 29.1696L80.0658 92.3965C76.4023 98.7408 78.5764 106.853 84.9216 110.516L199.261 176.52C205.606 180.183 213.719 178.009 217.383 171.665L253.892 108.438C257.556 102.094 255.382 93.9811 249.037 90.3182Z" fill="white" stroke="black" stroke-width="2" stroke-miterlimit="10"/>
<path d="M156.339 89.4264L126.569 22.643L205.294 1.81894C215.111 -0.779634 225.247 4.77187 228.342 14.4457L254.769 96.9977L182.837 108.219" fill="white"/>
<path d="M156.339 89.4264L126.569 22.643L205.294 1.81894C215.111 -0.779634 225.247 4.77187 228.342 14.4457L254.769 96.9977L182.837 108.219" stroke="black" stroke-width="2" stroke-miterlimit="10"/>
<path d="M135.028 41.6128L151.307 12.9222C156.032 4.59491 166.593 1.63017 174.969 6.27217L241.479 43.1365C249.677 47.684 252.82 57.8893 248.614 66.252L231.426 100.423" fill="white"/>
<path d="M135.028 41.6128L151.307 12.9222C156.032 4.59491 166.593 1.63017 174.969 6.27217L241.479 43.1365C249.677 47.684 252.82 57.8893 248.614 66.252L231.426 100.423" stroke="black" stroke-width="2" stroke-miterlimit="10"/>
<path d="M144.124 210.839L93.2791 165.612" stroke="black" stroke-width="2" stroke-miterlimit="10"/>
<path d="M76.5039 368.041L146.759 394.854" stroke="black" stroke-width="2" stroke-miterlimit="10"/>
<path d="M18.3463 300.762L51.8138 239.116C54.2829 234.581 60.4259 233.683 64.0762 237.333L100.426 273.677C102.931 276.182 103.415 280.056 101.608 283.091L64.5015 345.516C61.8198 350.028 55.5233 350.607 52.0501 346.674L19.3387 309.55C17.1886 307.116 16.7988 303.597 18.3463 300.75V300.762Z" fill="#E94649" stroke="black" stroke-miterlimit="10"/>
<path d="M69.5104 337.637L68.459 312.868C68.4 311.415 67.3249 310.211 65.8837 309.998L62.4342 309.49C61.0638 309.289 60.0597 308.108 60.0597 306.726V289.989C60.0597 288.194 58.3821 286.871 56.6338 287.284L21.0989 295.706" fill="white"/>
<path d="M69.5104 337.637L68.459 312.868C68.4 311.415 67.3249 310.211 65.8837 309.998L62.4342 309.49C61.0638 309.289 60.0597 308.108 60.0597 306.726V289.989C60.0597 288.194 58.3821 286.871 56.6337 287.284L21.0989 295.706" stroke="black" stroke-width="2" stroke-miterlimit="10"/>
<path d="M81.9784 292.772C83.8044 289.851 83.5535 286.401 81.418 285.067C79.2825 283.732 76.071 285.018 74.245 287.938C72.419 290.859 72.6699 294.309 74.8054 295.643C76.9409 296.978 80.1523 295.692 81.9784 292.772Z" fill="white" stroke="black" stroke-width="2" stroke-miterlimit="10"/>
<path d="M211.319 359.383L248.933 386.692C250.256 387.66 252.111 386.609 251.957 384.967L250.221 366.245C250.091 364.84 248.886 363.777 247.48 363.812L243.653 363.919C242.412 363.954 241.373 362.997 241.278 361.769L240.321 347.89C240.191 345.941 238.159 344.713 236.364 345.492L211.65 356.347C210.409 356.891 210.22 358.58 211.319 359.383Z" fill="#E94649" stroke="black" stroke-miterlimit="10"/>
<path d="M447.131 170.293L341.109 109.091C330.882 103.187 317.805 106.691 311.901 116.916L269.597 190.178C263.692 200.404 267.196 213.479 277.423 219.383L383.444 280.585C393.671 286.489 406.749 282.985 412.653 272.76L454.957 199.498C460.862 189.272 457.358 176.197 447.131 170.293Z" fill="white" stroke="black" stroke-width="2" stroke-miterlimit="10"/>
<path d="M327.256 176.443C335.81 176.443 342.744 169.511 342.744 160.958C342.744 152.406 335.81 145.473 327.256 145.473C318.703 145.473 311.769 152.406 311.769 160.958C311.769 169.511 318.703 176.443 327.256 176.443Z" fill="white" stroke="black" stroke-width="2" stroke-miterlimit="10"/>
<path d="M78.3586 100.423L160.887 88.7769C168.885 87.6429 176.611 92.1786 179.529 99.7145L209.216 176.432" fill="white"/>
<path d="M78.3586 100.423L160.887 88.7769C168.885 87.6429 176.611 92.1786 179.529 99.7145L209.216 176.432" stroke="black" stroke-width="2" stroke-miterlimit="10"/>
<path d="M192.075 77.8391C202.416 77.8391 210.799 69.4572 210.799 59.1175C210.799 48.7779 202.416 40.396 192.075 40.396C181.734 40.396 173.351 48.7779 173.351 59.1175C173.351 69.4572 181.734 77.8391 192.075 77.8391Z" fill="white" stroke="black" stroke-width="2" stroke-miterlimit="10"/>
</g>
<defs>
<clipPath id="clip0_0_236">
<rect width="459" height="476" fill="white"/>
</clipPath>
</defs>
</svg>
