<svg width="170" height="102" viewBox="0 0 107 105" fill="none" xmlns="http://www.w3.org/2000/svg">
<g id="Group 92">
<path id="Vector" d="M96.7706 39.6424H86.3864V20.9284C86.3864 9.39032 77.0232 0 65.5185 0H42.5172C31.0124 0 21.6492 9.39032 21.6492 20.9284V39.6424H11.099C5.48775 39.6424 0.930664 44.221 0.930664 49.8486V61.0287C0.930664 66.6562 5.49605 71.2348 11.099 71.2348H14.3197V85.3453C14.3197 90.1487 17.557 94.2028 21.9564 95.4432V98.1321C21.9564 101.92 25.0276 105 28.8044 105C32.5813 105 35.6525 101.92 35.6525 98.1321V95.8428H72.1922V98.1321C72.1922 101.92 75.2635 105 79.0403 105C82.8171 105 85.8884 101.92 85.8884 98.1321V95.7096C90.9186 94.9437 94.7867 90.5899 94.7867 85.337V71.2265H96.7623C102.374 71.2265 106.931 66.6479 106.931 61.0204V49.8403C106.931 44.2127 102.365 39.6341 96.7623 39.6341L96.7706 39.6424ZM84.3279 88.6169H24.7869C22.9856 88.6169 21.5164 87.1434 21.5164 85.337V71.2265H22.2469C25.2185 71.2265 27.8914 69.9279 29.759 67.88H78.1106C79.97 69.9279 82.6428 71.2265 85.6228 71.2265H87.5983V85.337C87.5983 87.1434 86.1291 88.6169 84.3279 88.6169ZM8.12739 49.8403C8.12739 48.2003 9.45549 46.86 11.099 46.86H22.2469C23.8821 46.86 25.2185 48.192 25.2185 49.8403V61.0204C25.2185 62.6604 23.8904 64.0006 22.2469 64.0006H11.099C9.46379 64.0006 8.12739 62.6687 8.12739 61.0204V49.8403ZM79.1814 41.9484C76.907 43.8215 75.4461 46.6602 75.4461 49.8403V60.6541H32.4235V49.8403C32.4235 46.7434 31.0373 43.9713 28.8542 42.0982V20.9284C28.8542 13.3695 34.9802 7.22588 42.5172 7.22588H65.5185C73.0555 7.22588 79.1814 13.3695 79.1814 20.9284V41.9484ZM85.6228 64.0006C83.9875 64.0006 82.6511 62.6687 82.6511 61.0204V49.8403C82.6511 48.2003 83.9792 46.86 85.6228 46.86H96.7706C98.4058 46.86 99.7422 48.192 99.7422 49.8403V61.0204C99.7422 62.6604 98.4141 64.0006 96.7706 64.0006H85.6228Z" fill="black"/>
</g>
</svg>
