<svg width="170" height="102" viewBox="0 0 170 102" fill="none" xmlns="http://www.w3.org/2000/svg">
<path id="Union" fill-rule="evenodd" clip-rule="evenodd" d="M146.179 44.5005C151.988 54.0421 154.75 62.9868 155.881 67.4591H155.89H169.931V101.251H136.139V67.4591H148.487C145.181 55.9397 134.081 28.0278 103.06 20.4195V33.8008H69.2587V20.1255C37.2397 27.2794 25.9252 55.7437 22.5755 67.4591H33.7919V101.251H0V67.4591H15.181C16.3124 62.9779 19.0831 54.0332 24.8829 44.5005C30.1927 35.7964 39.2799 24.7938 53.7837 17.9249C46.5174 17.9308 38.154 17.9405 30.8254 17.949C26.9852 17.9534 23.4292 17.9575 20.464 17.9606C19.0208 21.6667 15.4661 24.1523 11.3857 24.1523C6.00468 24.1523 1.63035 19.7691 1.63035 14.397C1.63035 9.02484 6.00468 4.65051 11.3768 4.65051C15.4482 4.65051 19.0029 7.12721 20.4462 10.8334C22.255 10.8313 24.1879 10.829 26.2052 10.8266C41.5261 10.8082 61.708 10.7841 69.2498 10.8155V0H103.051V10.8066C113.118 10.771 137.555 10.8066 149.333 10.8245C150.776 7.11831 154.322 4.6416 158.402 4.6416C163.783 4.6416 168.158 9.01593 168.158 14.397C168.158 19.778 163.783 24.1523 158.402 24.1523C154.313 24.1523 150.767 21.6667 149.324 17.9606C140.736 17.9428 127.871 17.9249 117.278 17.9249C131.791 24.7938 140.878 35.7875 146.179 44.5005ZM161.031 14.4059C161.031 12.9537 159.846 11.7777 158.402 11.7777C156.95 11.7777 155.774 12.9537 155.774 14.4059C155.774 15.8581 156.95 17.034 158.402 17.034C159.855 17.034 161.031 15.8581 161.031 14.4059ZM8.74866 14.397C8.74866 15.8491 9.93356 17.0251 11.3768 17.0251C12.829 17.0251 14.005 15.8491 14.005 14.397C14.005 12.9448 12.829 11.7688 11.3768 11.7688C9.92465 11.7688 8.74866 12.9448 8.74866 14.397ZM26.6647 94.1238V74.5863H7.12722V94.1238H26.6647ZM76.377 26.6736H95.9234V7.12721H76.377V26.6736ZM143.266 94.1238H162.803V74.5863H143.266V94.1238ZM82.0165 37.3478C83.531 35.0671 86.8808 35.0671 88.4042 37.3389H88.4131L104.61 61.5358C105.786 63.2819 106.409 65.3399 106.409 67.4425V98.2053C106.409 100.174 104.815 101.769 102.846 101.769C100.877 101.769 99.2821 100.174 99.2821 98.2053V70.7299C99.2821 69.6964 98.4447 68.859 97.4113 68.859C96.3778 68.859 95.5404 69.6964 95.5404 70.7299V98.2053C95.5404 100.174 93.9456 101.769 91.9768 101.769C90.0079 101.769 88.4131 100.174 88.4131 98.2053V71.995C88.4131 70.2577 87.0144 68.859 85.2772 68.859C83.5399 68.859 82.1412 70.2666 82.1412 71.995V98.2053C82.1412 100.174 80.5465 101.769 78.5776 101.769C76.6087 101.769 75.014 100.174 75.014 98.2053V70.7299C75.014 69.6964 74.1765 68.859 73.1431 68.859C72.1096 68.859 71.2722 69.6964 71.2722 70.7299V98.2053C71.2722 100.174 69.6775 101.769 67.7086 101.769C65.7397 101.769 64.145 100.174 64.145 98.2053V67.4335C64.145 65.3399 64.7597 63.2998 65.9179 61.5536L82.0165 37.3478ZM85.2237 45.4015L74.3636 61.7407H96.164L85.2237 45.4015Z" fill="black"/>
</svg>
