<svg width="170" height="102" viewBox="0 0 172 104" fill="none" xmlns="http://www.w3.org/2000/svg">
<g id="Group 84">
<g id="Group">
<path id="Vector" d="M158.692 0H13.0411C6.18683 0 0.636963 5.54987 0.636963 12.4041V90.875C0.636963 97.7293 6.18683 103.279 13.0411 103.279H158.692C165.546 103.279 171.096 97.7293 171.096 90.875V12.4041C171.096 5.54987 165.546 0 158.692 0ZM163.586 90.875C163.586 93.5752 161.392 95.7686 158.692 95.7686H13.0411C10.3409 95.7686 8.14758 93.5752 8.14758 90.875V35.3846C8.14758 32.5598 10.4406 30.2751 13.2571 30.2751H158.468C161.293 30.2751 163.577 32.5681 163.577 35.3846V90.875H163.586ZM163.586 18.735C163.586 20.9533 161.783 22.7561 159.564 22.7561H12.1687C9.95045 22.7561 8.14758 20.9533 8.14758 18.735V12.4041C8.14758 9.70397 10.3409 7.5106 13.0411 7.5106H158.692C161.392 7.5106 163.586 9.70397 163.586 12.4041V18.735Z" fill="black"/>
<path id="Vector_2" d="M112.241 68.8582L101.091 63.0342L112.083 57.7834C113.952 56.8945 114.742 54.6429 113.853 52.7736C112.964 50.9043 110.712 50.115 108.843 51.0039L93.9712 58.1075C92.1766 58.9632 90.9803 60.683 90.8556 62.5939C90.7144 64.6875 91.8277 66.6732 93.6887 67.6453L108.752 75.5131C109.308 75.8039 109.898 75.9368 110.48 75.9368C111.834 75.9368 113.147 75.2057 113.811 73.9179C114.276 73.029 114.368 72.0154 114.069 71.0516C113.77 70.0962 113.113 69.3152 112.224 68.8499L112.241 68.8582Z" fill="black"/>
<path id="Vector_3" d="M155.668 58.1158L140.796 51.0122C138.927 50.1233 136.684 50.9126 135.786 52.7819C134.897 54.6512 135.687 56.8945 137.556 57.7917L148.548 63.0425L137.398 68.8666C136.509 69.3318 135.853 70.1128 135.554 71.0682C135.255 72.0237 135.346 73.0456 135.811 73.9346C136.484 75.214 137.789 75.9535 139.143 75.9535C139.724 75.9535 140.323 75.8205 140.871 75.5297L155.934 67.6619C157.795 66.6898 158.908 64.7042 158.767 62.6105C158.642 60.6996 157.446 58.9881 155.651 58.1241L155.668 58.1158Z" fill="black"/>
<path id="Vector_4" d="M130.61 43.1445C129.638 42.8953 128.625 43.0448 127.769 43.5516C126.905 44.0667 126.298 44.8809 126.049 45.853L117.799 78.2051C117.55 79.1771 117.699 80.1907 118.206 81.0465C118.721 81.9105 119.535 82.517 120.508 82.7663C120.815 82.8494 121.131 82.8826 121.446 82.8826C122.111 82.8826 122.767 82.7081 123.357 82.3592C124.221 81.8441 124.828 81.0299 125.077 80.0578L133.327 47.7057C133.576 46.7336 133.427 45.72 132.92 44.8643C132.413 44.0086 131.591 43.3937 130.619 43.1445H130.61Z" fill="black"/>
<path id="Vector_5" d="M108.801 11.4736H40.8902C38.8215 11.4736 37.1349 13.1602 37.1349 15.2289C37.1349 17.2977 38.8215 18.9842 40.8902 18.9842H108.801C110.87 18.9842 112.557 17.2977 112.557 15.2289C112.557 13.1602 110.87 11.4736 108.801 11.4736Z" fill="black"/>
<path id="Vector_6" d="M76.7982 34.6534H23.3432C17.5607 34.6534 12.8583 39.3559 12.8583 45.1384V81.4618C12.8583 87.2443 17.5607 91.9467 23.3432 91.9467H76.7982C82.5807 91.9467 87.2831 87.2443 87.2831 81.4618V45.1384C87.2831 39.3559 82.5807 34.6534 76.7982 34.6534ZM79.7642 81.4535C79.7642 83.0902 78.4349 84.4278 76.7898 84.4278H23.3349C21.6982 84.4278 20.3606 83.0985 20.3606 81.4535V45.1301C20.3606 43.4934 21.6899 42.1557 23.3349 42.1557H76.7898C78.4266 42.1557 79.7642 43.4851 79.7642 45.1301V81.4535Z" fill="black"/>
</g>
</g>
</svg>
