<svg width="170" height="130" viewBox="0 0 113 168" fill="none" xmlns="http://www.w3.org/2000/svg">
<g id="Group 82">
<path id="Vector" d="M112.1 70.279C110.159 65.6181 103.127 64.8621 101.694 64.7541H101.585C100.986 64.7374 100.386 64.7208 99.7858 64.7042V7.80139C99.7858 3.49775 96.2781 0 91.9623 0C87.6464 0 84.1388 3.49775 84.1388 7.80139V62.1536C80.8227 61.1068 78.2816 59.9104 76.1903 58.93C75.0405 58.39 74.049 57.9247 73.1159 57.5758C69.8665 56.3545 65.184 56.2049 62.0263 56.2797V50.4557C67.6919 46.1271 70.2914 39.3393 69.7665 30.2834V30.0757C69.6332 27.9072 68.0585 20.7705 62.5845 16.5416C58.8769 13.6753 54.2944 12.7531 48.9621 13.8165C33.1484 16.9487 32.1819 30.5243 32.1736 30.732V43.7925C32.1736 46.8914 33.64 49.8326 36.1062 51.6604C37.4892 52.6906 38.9973 53.5048 40.6137 54.103V56.2548C36.906 57.742 28.4993 61.9293 29.3658 69.0245C29.5824 70.7941 30.049 72.5305 30.7489 74.1922C30.4739 78.2216 29.5408 94.8713 32.1736 101.352C32.2153 101.46 32.2652 101.568 32.3152 101.676C30.6322 104.052 27.4162 109.336 24.925 117.785C23.1003 118.143 21.3506 118.791 19.726 119.729C12.294 123.991 7.70321 145.377 6.32013 152.796C4.01224 154.075 2.57087 155.804 1.55439 157.191C0.721218 158.329 0.212983 159.592 0.0463479 160.93C-0.170278 162.683 0.379608 164.461 1.54605 165.79C2.72916 167.144 4.44552 167.925 6.24518 167.942C9.77784 167.975 12.7189 168 15.1851 168C27.8911 168 28.2493 167.576 29.0492 166.637C30.0823 165.424 30.7656 161.503 29.4825 158.122C29.4408 158.005 29.3908 157.889 29.3408 157.773C32.5318 154.624 44.488 142.726 46.8208 139.162C48.5122 136.57 48.5871 133.554 47.0458 130.198L53.0113 121.266C56.8356 124.424 63.7759 130.09 67.5169 132.698C66.3255 135.183 64.1592 139.877 62.2429 144.787C56.8772 158.537 57.7271 162.807 59.1018 164.943C60.085 166.837 63.1344 167.643 68.75 167.51C75.5154 167.352 91.8123 167.51 92.5038 167.51L94.3201 167.526L94.9284 165.815C95.0867 165.375 96.3948 161.387 94.3201 157.515C93.1287 155.288 91.1208 153.635 88.3297 152.58C89.7211 148.891 93.562 141.505 98.7027 132.69C102.252 126.592 102.41 124.507 102.227 123.485C102.119 122.853 101.435 119.638 98.2777 118.4C95.5366 117.328 92.0373 118.284 87.8547 121.233C83.5306 112.21 72.1994 102.997 67.7502 99.6069C68.1501 98.1032 68.7584 95.5941 69.1 93.0185C72.241 92.6114 75.9653 91.9468 80.4478 90.9913C81.7226 90.7172 82.964 90.443 84.1554 90.1688V106.519C84.1554 110.823 87.6631 114.321 91.9789 114.321C96.2948 114.321 99.8025 110.823 99.8025 106.519V83.9128C100.511 83.0902 101.077 82.1597 101.469 81.1628C102.227 81.2209 102.952 81.2541 103.618 81.2541C107.493 81.2541 110.142 80.2738 111.7 78.2715C113.275 76.2443 113.425 73.3946 112.117 70.2624L112.1 70.279ZM107.659 75.1808C107.151 75.8372 105.36 76.3939 101.844 76.1197C101.735 75.7458 101.594 75.4052 101.41 75.0812C101.011 74.35 100.461 73.7352 99.7858 73.245V69.7805C100.361 69.8054 100.894 69.8138 101.386 69.8221C103.51 69.9965 106.868 70.952 107.401 72.2231C107.951 73.5441 108.051 74.674 107.659 75.1808ZM62.5012 99.4325C61.2848 101.426 55.7275 103.296 48.3622 103.03C41.9884 102.797 37.5143 101.028 36.8727 99.4574C35.7396 96.6658 35.2564 90.119 35.5063 81.2458C38.0891 83.9045 41.4635 86.3388 45.5711 88.4989L46.096 88.7731C51.5616 91.656 55.1692 93.5503 62.0513 93.5503C62.6262 93.5503 63.2261 93.5337 63.851 93.5087C63.401 96.1923 62.7178 98.6515 62.4929 99.4242L62.5012 99.4325ZM47.954 84.0125C39.5889 79.6091 35.1564 74.5079 34.4148 68.418C34.0899 65.751 37.6392 63.1589 41.2219 61.5139C42.5716 65.2276 46.0043 67.8198 50.0036 67.9943C50.7951 68.0275 51.6449 67.9943 52.5031 67.8696C60.5683 66.748 61.8096 62.8432 61.9929 61.3726C64.5258 61.3062 68.7667 61.3726 71.3162 62.3364C72.066 62.6189 72.9742 63.0426 74.024 63.5411C76.4319 64.671 79.6729 66.1914 84.1388 67.4542V72.9875C83.3223 73.1703 82.4641 73.3697 81.5476 73.594C79.198 72.5472 75.2571 71.1431 72.2744 70.1212C70.6413 69.5645 68.8333 69.8221 67.4253 70.819C66.0172 71.816 65.184 73.4444 65.184 75.1642V77.1831C59.4434 77.4822 57.1355 75.8455 56.9022 75.671L50.1369 70.8606C48.9871 70.0547 47.3957 70.3206 46.5875 71.4671C45.7794 72.6136 46.046 74.2005 47.1957 75.0064L53.5446 79.4928C54.7527 80.523 60.9015 84.7602 76.3069 80.2738C94.4701 74.9898 96.6947 77.0751 96.953 77.5404C96.978 77.5902 97.028 77.8145 96.9863 78.2133C96.8197 79.8417 95.7116 81.2791 94.0952 81.9437C91.8623 82.8742 87.4965 84.3365 79.373 86.0563C59.7184 90.2187 56.8856 88.7315 48.4789 84.2949L47.954 84.0208V84.0125ZM56.9273 60.6997C56.769 61.0071 55.8608 62.2699 51.7949 62.8349C51.245 62.9096 50.7201 62.9346 50.2202 62.918C47.679 62.81 45.6877 60.6581 45.6877 58.0327V55.1996C48.7871 55.4489 52.0032 54.9919 55.4025 53.8703C55.9191 53.7042 56.4274 53.5131 56.9189 53.3137V60.6914L56.9273 60.6997ZM70.2747 76.5185V75.1559C70.2747 75.0645 70.308 74.9981 70.383 74.9482C70.433 74.915 70.4747 74.8984 70.5247 74.8984C70.5496 74.8984 70.583 74.8984 70.6163 74.915C71.5495 75.2307 72.4326 75.5381 73.2575 75.8372C72.2327 76.1031 71.2412 76.3357 70.2747 76.5185ZM53.8111 49.0516C46.5292 51.4443 41.8134 49.575 39.1389 47.5893C37.9558 46.7087 37.256 45.288 37.256 43.7925V30.9231C37.3393 30.0923 38.5307 21.0696 49.9453 18.8098C53.7695 18.0537 56.9689 18.6436 59.4601 20.5711C63.1761 23.4457 64.5758 28.763 64.6674 30.3748V30.5825C65.2507 40.4277 61.693 46.476 53.8111 49.0599V49.0516ZM5.36201 162.458C5.13706 162.201 5.03705 161.893 5.07871 161.561C5.13703 161.088 5.32866 160.631 5.64526 160.19C7.26996 157.964 9.18626 155.961 14.7019 155.961C16.0183 155.961 17.5014 156.078 19.1178 156.31C21.7922 156.701 23.5919 157.731 24.45 159.368C25.0416 160.498 25.1249 161.81 25.05 162.741C22.5671 162.882 16.6599 162.982 6.27849 162.874C5.92855 162.874 5.5953 162.716 5.36201 162.45V162.458ZM26.1747 153.743C24.5084 152.48 22.3921 151.658 19.851 151.292C18.018 151.026 16.3349 150.893 14.7769 150.893C13.7354 150.893 12.7606 150.952 11.8275 151.068C14.2853 139.279 18.4512 126.309 22.2422 124.133C28.5743 120.494 35.7812 123.726 38.6557 127.057C43.6547 132.848 43.4131 135.033 42.5216 136.404C41.0136 138.722 33.1484 146.856 26.1664 153.743H26.1747ZM42.5216 123.742C40.1721 121.017 35.598 118.217 30.299 117.602C32.2819 111.488 34.6148 107.4 35.9979 105.306C40.0471 107.558 45.7627 108.015 48.1789 108.106C48.6872 108.123 49.2121 108.131 49.737 108.131C53.0613 108.131 60.8848 107.716 65.1507 104.052C72.8076 109.976 81.3476 118.226 83.7972 124.698C81.2893 127.34 79.1897 130.738 77.565 134.817L72.191 134.692C72.4909 134.078 72.7826 133.479 73.0742 132.898C73.6824 131.677 73.2242 130.206 72.0244 129.558L71.6995 129.392C70.6663 128.951 63.3427 123.294 54.0861 115.575L51.9115 113.756L44.038 125.537C43.4881 124.847 42.9632 124.241 42.5383 123.742H42.5216ZM68.5 142.851C68.9333 141.813 69.3832 140.774 69.8498 139.719L75.8737 139.86C75.6987 140.508 75.532 141.165 75.3737 141.821C75.2904 142.162 75.2155 142.51 75.1405 142.859H68.4917L68.5 142.851ZM74.299 147.936C74.0323 150.121 73.6574 154.051 74.2573 155.255C75.0238 156.792 76.1986 157.341 85.4635 157.008C87.6298 157.615 89.0878 158.595 89.8044 159.916C90.2626 160.764 90.3792 161.686 90.3626 162.434C85.5135 162.392 74.049 162.326 68.6084 162.45C65.209 162.533 63.7843 162.217 63.2927 162.06C63.0177 161.345 62.5678 158.371 66.4754 147.927H74.299V147.936ZM83.1723 151.982C81.5559 152.007 80.0895 151.998 79.0314 151.965C79.2813 146.282 81.4143 132.848 89.2045 126.584C94.1619 122.596 96.0615 123.019 96.3865 123.144C96.8197 123.31 97.0613 123.892 97.1446 124.158C97.053 124.598 96.5781 126.218 94.2785 130.156C88.138 140.691 84.4054 148.019 83.164 151.982H83.1723ZM89.2295 72.0487V7.80139C89.2295 6.29761 90.4542 5.07631 91.9623 5.07631C93.4703 5.07631 94.6951 6.29761 94.6951 7.80139V71.7329C93.162 71.6499 91.3541 71.7579 89.2378 72.0487H89.2295ZM94.6951 87.1613V106.544C94.6951 108.048 93.4703 109.269 91.9623 109.269C90.4542 109.269 89.2295 108.048 89.2295 106.544V88.8977C91.3041 88.3161 93.137 87.7345 94.6867 87.1613H94.6951Z" fill="black"/>
</g>
</svg>
