<svg width="24" height="24" viewBox="0 0 24 24" fill="none" xmlns="http://www.w3.org/2000/svg">
<path fill-rule="evenodd" clip-rule="evenodd" d="M23.9797 2.52524C23.9141 1.15847 22.9154 0.0941615 21.5401 0H12.6889C11.4363 0.0856013 10.4233 1.05575 10.2863 2.30553C10.2946 3.04155 10.2798 3.78792 10.2649 4.53583V4.53584V4.53585V4.53585C10.244 5.58849 10.223 6.64419 10.2664 7.67844C10.2863 8.16351 10.3891 8.60293 10.6373 9.01953C11.091 9.78138 11.9413 10.2807 12.8344 10.2693V12.863C12.8344 13.4851 13.5791 13.9045 14.1127 13.5935L18.2758 10.2779L21.5886 10.2722C22.8954 10.1751 23.9398 9.07659 23.9769 7.76404C23.9469 6.93901 23.9644 6.10099 23.9818 5.26299C24.001 4.34467 24.0201 3.42637 23.9769 2.52524H23.9797ZM21.503 8.55728H17.9277C17.785 8.57154 17.6595 8.61149 17.5368 8.68283L14.5636 11.0426V9.35622C14.5636 8.96246 14.1612 8.59437 13.7846 8.56013C13.6282 8.54591 13.4625 8.55029 13.2973 8.55465C12.7332 8.56955 12.174 8.58432 12.0041 7.8582L11.9955 2.45676C12.044 2.1115 12.3065 1.82045 12.6461 1.73771C14.4566 1.70061 16.2714 1.70616 18.0866 1.71172H18.0866C19.2037 1.71513 20.321 1.71855 21.4373 1.71203C21.8539 1.74341 22.1792 2.02875 22.2506 2.43964V7.79828C22.2192 8.19775 21.8939 8.50021 21.503 8.55728ZM21.8797 17.2573C20.0507 16.601 18.1931 15.9904 16.3384 15.4055C16.0845 15.3884 15.8562 15.4825 15.6707 15.6452L14.3725 17.2373L14.324 17.2687C10.8913 15.8963 8.10359 13.1028 6.71685 9.6759L6.73112 9.61312L8.35754 8.27774C8.56299 8.04377 8.62861 7.71563 8.52874 7.42173C8.23178 6.628 7.97682 5.80671 7.72201 4.98587L7.722 4.98586C7.44551 4.09521 7.16919 3.20508 6.83954 2.35128C6.69973 1.99175 6.49999 1.7806 6.10623 1.71497C5.76773 1.72508 5.42365 1.71785 5.07917 1.71062H5.07917C4.64542 1.70151 4.21105 1.69238 3.78643 1.71783C1.59218 1.84623 0 3.66383 0 5.82954C0 14.9746 7.01645 22.7815 16.0645 23.8401C17.6881 24.0312 19.3117 24.1853 20.6841 23.141C22.3622 21.8598 22.3201 20.1244 22.2736 18.2092L22.2678 17.965C22.2478 17.6796 22.1194 17.42 21.8797 17.2573ZM18.3929 22.2507C17.8678 22.2821 17.2087 22.2308 16.6808 22.1822C8.71421 21.4546 2.34262 14.9546 1.76624 6.9766C1.67779 5.76106 1.6036 4.57976 2.73639 3.82362C3.38208 3.39168 4.06252 3.40797 4.77906 3.42514H4.77906H4.77907H4.77908C4.98081 3.42997 5.1854 3.43487 5.39288 3.42985L6.71114 7.40746L5.16176 8.68292C4.58154 9.13221 4.89991 9.84252 5.15454 10.4107C5.18291 10.4739 5.21049 10.5355 5.23595 10.5947C6.77392 14.1757 9.63871 17.0861 13.2026 18.664C13.5222 18.8067 13.8845 18.9636 14.2155 19.0721C14.5922 19.1948 14.926 19.2005 15.2256 18.9009C15.4577 18.6703 15.6721 18.3823 15.8868 18.094C16.0865 17.8258 16.2865 17.5572 16.5011 17.3344C16.5064 17.329 16.5117 17.323 16.5169 17.3169C16.5341 17.2972 16.5519 17.2766 16.5781 17.2744L20.5386 18.5956V20.1763C20.4387 21.2834 19.5028 22.188 18.3929 22.2564V22.2507ZM14.4581 4.28588C13.3538 4.40287 13.5079 6.1206 14.6749 5.98935C15.7478 5.86951 15.608 4.16319 14.4581 4.28588ZM17.0261 4.28588C15.9218 4.40287 16.0759 6.1206 17.2429 5.98935C18.3158 5.86951 18.176 4.16319 17.0261 4.28588ZM19.5941 4.28588C18.4898 4.40287 18.6439 6.1206 19.8109 5.98935C20.8838 5.86951 20.744 4.16319 19.5941 4.28588Z" fill="white"/>
</svg>
